<?xml version="1.0" encoding="utf-8"?>
<!-- Generator: Adobe Illustrator 27.4.1, SVG Export Plug-In . SVG Version: 6.00 Build 0)  -->
<svg version="1.1" id="Layer_1" xmlns="http://www.w3.org/2000/svg" xmlns:xlink="http://www.w3.org/1999/xlink" x="0px" y="0px"
	 viewBox="0 0 1228.5 665.7" style="enable-background:new 0 0 1228.5 665.7;" xml:space="preserve">
<style type="text/css">
	.st0{fill:#FFFFFF;}
</style>
<g id="Vlatech_Logo">
	<path id="Valtech_Logo_00000059285499995098246850000001237636214874862734_" class="st0" d="M111.1,263.1h16.8l32.8,92.5
		c4.7,13.6,9.7,27.4,14.4,40.7h0.2c4.7-13.4,9.7-27.2,14.4-40.7l32.8-92.5h16.8l-56,150.9h-16.2L111.1,263.1z M232.4,379.9
		c0-24.1,18.5-36.4,44-36.4H295c14.2,0,20.7-5.4,20.7-15.5c0-14.2-12.7-22.2-29.5-22.2c-19,0-32.6,9.9-34.1,28l-15.1-3.5
		c3.4-23.5,20.9-37.5,49.1-37.5c30.2,0,44.6,16,44.6,38.4v61.2c0,5.8,2.4,8.2,7.8,8.2h4.7V414h-9.9c-10.6,0-17-6.2-17-16.6v-11.6
		h-0.4c-6.9,20.7-23.7,30.8-43.8,30.8C249.5,416.6,232.4,403.4,232.4,379.9z M274.9,403.6c20.7,0,40.7-13.6,40.7-44.2v-16h-0.4
		c-3.7,8.4-11.6,12.9-26.1,12.9h-12.3c-20.9,0-28.4,11-28.4,23.5C248.4,392.6,256.2,403.6,274.9,403.6z M362.4,245.6h15.1V414h-15.1
		V245.6z M418,386.2v-77.4h-25.2v-13.4H418v-32.3h15.1v32.3h38.1v13.4h-38.1v76.7c0,10.4,5,15.1,14.9,15.1h24.4V414h-26.5
		C427.5,414,418,404.3,418,386.2z M476.5,354.7c0-38.1,23.3-61.9,56.9-61.9c32.5,0,55.4,22.2,55.4,56.5v9.9h-96.1
		c0.9,26.1,16.6,44.4,41.2,44.4c18.3,0,32.5-10.1,37.5-26.1l15.5,3.5c-6.2,20.9-26.5,35.6-53,35.6
		C499.3,416.6,476.5,392,476.5,354.7z M572.8,346.3c-0.2-23.5-14.9-40.5-39-40.5c-24.8,0-39.2,17.9-41,40.5H572.8z M601,354.7
		c0-37.3,21.5-61.9,58-61.9c31.9,0,49.8,19.8,53.7,44.4l-15.5,3.5c-1.3-18.8-14.7-34.9-38.2-34.9c-26.1,0-42.2,20.3-42.2,48.9
		c0,30.2,18.5,48.9,42.2,48.9c23.3,0,36-17.9,38.2-32.5l15.3,3.5c-4.3,22.6-22.8,42-53.5,42C624.3,416.6,601,392.2,601,354.7z
		 M727.4,245.6h15.1v56.5c0,5.4,0,9.5-0.4,19.4h0.4c5.6-15.5,19.2-28.7,40.3-28.7c25,0,40.5,17.9,40.5,46.4V414h-15.1v-70.5
		c0-26.3-11.9-37.3-29.1-37.3c-19,0-36.6,13.1-36.6,42.7V414h-15.1L727.4,245.6z M1117.6,325.4h-93.1l65.8-65.8l-10.5-10.5L1014,315
		v-93.1h-14.8V315l-65.8-65.8L923,259.6l65.8,65.8h-93.1v14.8h93.1L923,406l10.5,10.5l65.8-65.8v93.1h14.8v-93.1l65.8,65.8
		l10.5-10.5l-65.8-65.8h93.1L1117.6,325.4z M1006.7,340.2c-4.1,0-7.4-3.3-7.4-7.4s3.3-7.4,7.4-7.4c4.1,0,7.4,3.3,7.4,7.4
		C1014,336.9,1010.7,340.2,1006.7,340.2"/>
</g>
</svg>
